<?xml version="1.0" encoding="UTF-8"?>
<svg width="600" height="400" viewBox="0 0 600 400" xmlns="http://www.w3.org/2000/svg">
    <!-- Gradients and filters -->
    <defs>
        <linearGradient id="salesGradient" x1="0%" y1="0%" x2="100%" y2="100%">
            <stop offset="0%" style="stop-color:#6366f1"/>
            <stop offset="100%" style="stop-color:#8b5cf6"/>
        </linearGradient>
        <filter id="glow">
            <feGaussianBlur stdDeviation="3" result="coloredBlur"/>
            <feMerge>
                <feMergeNode in="coloredBlur"/>
                <feMergeNode in="SourceGraphic"/>
            </feMerge>
        </filter>
    </defs>

    <!-- Graph Background -->
    <g transform="translate(80, 80) scale(1.2)">
        <!-- Grid lines -->
        <g stroke="#6366f1" stroke-opacity="0.1" stroke-width="1">
            <line x1="0" y1="0" x2="300" y2="0"/>
            <line x1="0" y1="50" x2="300" y2="50"/>
            <line x1="0" y1="100" x2="300" y2="100"/>
            <line x1="0" y1="150" x2="300" y2="150"/>
            <line x1="0" y1="200" x2="300" y2="200"/>
        </g>
    </g>

    <!-- Sales Graph -->
    <g transform="translate(80, 280) scale(1.2)">
        <!-- Graph line -->
        <path d="M0,150 Q75,100 150,80 T300,0" 
              fill="none" stroke="url(#salesGradient)" stroke-width="4"
              filter="url(#glow)"/>
        
        <!-- Data points -->
        <circle cx="0" cy="150" r="8" fill="url(#salesGradient)"/>
        <circle cx="75" cy="100" r="8" fill="url(#salesGradient)"/>
        <circle cx="150" cy="80" r="8" fill="url(#salesGradient)"/>
        <circle cx="225" cy="40" r="8" fill="url(#salesGradient)"/>
        <circle cx="300" cy="0" r="8" fill="url(#salesGradient)">
            <animate attributeName="r" 
                     values="8;12;8" dur="2s" repeatCount="indefinite"/>
        </circle>
    </g>

    <!-- AI Assistant Icon -->
    <g transform="translate(450, 100) scale(1.5)">
        <!-- AI Circle -->
        <circle cx="25" cy="25" r="25" 
                fill="white" stroke="url(#salesGradient)" stroke-width="2"/>
        
        <!-- AI Symbol -->
        <g transform="translate(25, 25)">
            <path d="M-10,0 L10,0 M0,-10 L0,10" 
                  stroke="url(#salesGradient)" stroke-width="2"/>
        </g>

        <!-- Pulse Animation -->
        <circle cx="25" cy="25" r="30" 
                stroke="url(#salesGradient)" stroke-width="2" fill="none">
            <animate attributeName="r" 
                     values="25;30;25" dur="2s" repeatCount="indefinite"/>
            <animate attributeName="stroke-opacity" 
                     values="1;0;1" dur="2s" repeatCount="indefinite"/>
        </circle>
    </g>

    <!-- Document Icons -->
    <g transform="translate(80, 100) scale(1.5)">
        <!-- Document 1 -->
        <g transform="rotate(-15)">
            <rect x="0" y="0" width="50" height="60" rx="5" 
                  fill="white" stroke="#6366f1" stroke-width="2"/>
            <line x1="10" y1="15" x2="40" y2="15" 
                  stroke="#6366f1" stroke-opacity="0.5" stroke-width="2"/>
            <line x1="10" y1="30" x2="40" y2="30" 
                  stroke="#6366f1" stroke-opacity="0.3" stroke-width="2"/>
            <line x1="10" y1="45" x2="40" y2="45" 
                  stroke="#6366f1" stroke-opacity="0.2" stroke-width="2"/>
        </g>
        <!-- Document 2 -->
        <g transform="translate(25, -10)">
            <rect x="0" y="0" width="50" height="60" rx="5" 
                  fill="white" stroke="#6366f1" stroke-width="2"/>
            <line x1="10" y1="15" x2="40" y2="15" 
                  stroke="#6366f1" stroke-opacity="0.5" stroke-width="2"/>
            <line x1="10" y1="30" x2="40" y2="30" 
                  stroke="#6366f1" stroke-opacity="0.3" stroke-width="2"/>
            <line x1="10" y1="45" x2="40" y2="45" 
                  stroke="#6366f1" stroke-opacity="0.2" stroke-width="2"/>
        </g>
    </g>

    <!-- Connection Lines -->
    <g transform="translate(200, 150) scale(1.5)" filter="url(#glow)">
        <path d="M0,0 Q100,-30 200,0" 
              fill="none" stroke="url(#salesGradient)" stroke-width="3"
              stroke-dasharray="8,8">
            <animate attributeName="stroke-dashoffset" 
                     from="16" to="0" dur="1s" repeatCount="indefinite"/>
        </path>
    </g>

    <!-- Growth Indicators -->
    <g transform="translate(450, 200)">
        <text x="0" y="0" font-family="Inter, sans-serif" 
              font-size="24" font-weight="bold" fill="#6366f1">+150%</text>
        <text x="0" y="30" font-family="Inter, sans-serif" 
              font-size="16" fill="#6366f1">成長率</text>
    </g>
</svg>