<?xml version="1.0" encoding="UTF-8"?>
<svg width="64" height="64" viewBox="0 0 64 64" fill="none" xmlns="http://www.w3.org/2000/svg">
    <circle cx="32" cy="32" r="24" stroke="#2563EB" stroke-width="3"/>
    <path d="M32 8C38.6274 8 44 13.3726 44 20C44 26.6274 38.6274 32 32 32C25.3726 32 20 26.6274 20 20C20 13.3726 25.3726 8 32 8Z" stroke="#2563EB" stroke-width="3"/>
    <path d="M32 56C38.6274 56 44 50.6274 44 44C44 37.3726 38.6274 32 32 32C25.3726 32 20 37.3726 20 44C20 50.6274 25.3726 56 32 56Z" stroke="#2563EB" stroke-width="3"/>
    <path d="M8 32C8 38.6274 13.3726 44 20 44C26.6274 44 32 38.6274 32 32C32 25.3726 26.6274 20 20 20C13.3726 20 8 25.3726 8 32Z" stroke="#2563EB" stroke-width="3"/>
    <path d="M56 32C56 38.6274 50.6274 44 44 44C37.3726 44 32 38.6274 32 32C32 25.3726 37.3726 20 44 20C50.6274 20 56 25.3726 56 32Z" stroke="#2563EB" stroke-width="3"/>
    <circle cx="32" cy="32" r="4" fill="#2563EB"/>
</svg>