<?xml version="1.0" encoding="UTF-8"?>
<svg width="600" height="400" viewBox="0 0 600 400" xmlns="http://www.w3.org/2000/svg">
    <!-- Background gradient -->
    <defs>
        <linearGradient id="cardGradient" x1="0%" y1="0%" x2="100%" y2="100%">
            <stop offset="0%" style="stop-color:#6366f1;stop-opacity:0.1"/>
            <stop offset="100%" style="stop-color:#8b5cf6;stop-opacity:0.1"/>
        </linearGradient>
        
        <!-- Glow effect -->
        <filter id="glow">
            <feGaussianBlur stdDeviation="3" result="coloredBlur"/>
            <feMerge>
                <feMergeNode in="coloredBlur"/>
                <feMergeNode in="SourceGraphic"/>
            </feMerge>
        </filter>
    </defs>

    <!-- Business Card -->
    <g transform="translate(100, 150) scale(1.5)">
        <rect x="0" y="0" width="180" height="100" rx="10" 
              fill="white" stroke="#6366f1" stroke-width="2"/>
        
        <!-- NFC Symbol -->
        <circle cx="150" cy="25" r="15" fill="none" 
                stroke="#6366f1" stroke-width="2"/>
        <circle cx="150" cy="25" r="8" fill="none" 
                stroke="#6366f1" stroke-width="2"/>
        
        <!-- Card Content Lines -->
        <line x1="20" y1="30" x2="120" y2="30" 
              stroke="#6366f1" stroke-width="2"/>
        <line x1="20" y1="50" x2="100" y2="50" 
              stroke="#6366f1" stroke-opacity="0.5" stroke-width="2"/>
        <line x1="20" y1="70" x2="140" y2="70" 
              stroke="#6366f1" stroke-opacity="0.3" stroke-width="2"/>
    </g>

    <!-- Connection Lines Animation -->
    <g transform="translate(380, 200) scale(1.5)" filter="url(#glow)">
        <path d="M0,0 C30,-20 60,-20 90,0" 
              fill="none" stroke="#8b5cf6" stroke-width="2" stroke-dasharray="5,5">
            <animate attributeName="stroke-dashoffset" 
                     from="10" to="0" dur="1s" repeatCount="indefinite"/>
        </path>
    </g>

    <!-- AI Chat Interface -->
    <g transform="translate(470, 150) scale(1.5)">
        <!-- Chat Bubble Background -->
        <rect x="0" y="0" width="30" height="100" rx="15" 
              fill="#6366f1" fill-opacity="0.1"/>
        
        <!-- AI Icon -->
        <circle cx="15" cy="25" r="10" fill="#6366f1"/>
        <path d="M10,25 L20,25 M15,20 L15,30" 
              stroke="white" stroke-width="2"/>
        
        <!-- Chat Lines -->
        <line x1="5" y1="50" x2="25" y2="50" 
              stroke="#6366f1" stroke-width="2"/>
        <line x1="5" y1="60" x2="25" y2="60" 
              stroke="#6366f1" stroke-width="2"/>
        <line x1="5" y1="70" x2="25" y2="70" 
              stroke="#6366f1" stroke-width="2"/>
    </g>

    <!-- Pulse Animation -->
    <circle cx="380" cy="200" r="8" fill="#8b5cf6">
        <animate attributeName="r" 
                 values="8;15;8" dur="2s" repeatCount="indefinite"/>
        <animate attributeName="fill-opacity" 
                 values="1;0;1" dur="2s" repeatCount="indefinite"/>
    </circle>
</svg>
